<mxfile host="Electron" modified="2024-03-04T06:18:04.392Z" agent="Mozilla/5.0 (Windows NT 10.0; Win64; x64) AppleWebKit/537.36 (KHTML, like Gecko) draw.io/21.2.8 Chrome/112.0.5615.165 Electron/24.2.0 Safari/537.36" version="21.2.8" etag="bb4-ZPzGn0YsDitI3ri1" type="device">
  <diagram id="k6p1--bLj2ejddj29_yl" name="第 1 页">
    <mxGraphModel dx="964" dy="546" grid="1" gridSize="10" guides="1" tooltips="1" connect="1" arrows="1" fold="1" page="1" pageScale="1" pageWidth="827" pageHeight="1169" background="none" math="0" shadow="0">
      <root>
        <mxCell id="0" />
        <mxCell id="1" parent="0" />
        <mxCell id="TtlJZ5i-rTw--ZZguqTJ-3" value="传感器对象" style="swimlane;fontStyle=1;align=center;verticalAlign=top;childLayout=stackLayout;horizontal=1;startSize=26;horizontalStack=0;resizeParent=1;resizeParentMax=0;resizeLast=0;collapsible=1;marginBottom=0;whiteSpace=wrap;html=1;" vertex="1" parent="1">
          <mxGeometry width="160" height="236" as="geometry">
            <mxRectangle x="190" y="160" width="100" height="30" as="alternateBounds" />
          </mxGeometry>
        </mxCell>
        <mxCell id="TtlJZ5i-rTw--ZZguqTJ-4" value="+ 结构体成员:&amp;nbsp;&lt;br&gt;- module &lt;span style=&quot;white-space: pre;&quot;&gt;	&lt;/span&gt;//模块&lt;br&gt;- arg &lt;span style=&quot;white-space: pre;&quot;&gt;	&lt;/span&gt;//参数&lt;br&gt;- name &lt;span style=&quot;white-space: pre;&quot;&gt;	&lt;/span&gt;//名称&lt;br&gt;- node &lt;span style=&quot;white-space: pre;&quot;&gt;	&lt;/span&gt;//传感器链表" style="text;strokeColor=none;fillColor=none;align=left;verticalAlign=top;spacingLeft=4;spacingRight=4;overflow=hidden;rotatable=0;points=[[0,0.5],[1,0.5]];portConstraint=eastwest;whiteSpace=wrap;html=1;" vertex="1" parent="TtlJZ5i-rTw--ZZguqTJ-3">
          <mxGeometry y="26" width="160" height="84" as="geometry" />
        </mxCell>
        <mxCell id="TtlJZ5i-rTw--ZZguqTJ-5" value="" style="line;strokeWidth=1;fillColor=none;align=left;verticalAlign=middle;spacingTop=-1;spacingLeft=3;spacingRight=3;rotatable=0;labelPosition=right;points=[];portConstraint=eastwest;strokeColor=inherit;" vertex="1" parent="TtlJZ5i-rTw--ZZguqTJ-3">
          <mxGeometry y="110" width="160" height="8" as="geometry" />
        </mxCell>
        <mxCell id="TtlJZ5i-rTw--ZZguqTJ-6" value="+ 操作接口:&amp;nbsp;&lt;br&gt;- init&lt;br&gt;- open&lt;br&gt;- close&lt;br&gt;- collect&lt;br&gt;- lpm&lt;br&gt;- control" style="text;strokeColor=none;fillColor=none;align=left;verticalAlign=top;spacingLeft=4;spacingRight=4;overflow=hidden;rotatable=0;points=[[0,0.5],[1,0.5]];portConstraint=eastwest;whiteSpace=wrap;html=1;" vertex="1" parent="TtlJZ5i-rTw--ZZguqTJ-3">
          <mxGeometry y="118" width="160" height="118" as="geometry" />
        </mxCell>
        <mxCell id="TtlJZ5i-rTw--ZZguqTJ-31" value="" style="edgeStyle=orthogonalEdgeStyle;rounded=0;orthogonalLoop=1;jettySize=auto;html=1;" edge="1" parent="1" source="9" target="15">
          <mxGeometry relative="1" as="geometry" />
        </mxCell>
        <mxCell id="TtlJZ5i-rTw--ZZguqTJ-36" style="edgeStyle=orthogonalEdgeStyle;rounded=0;orthogonalLoop=1;jettySize=auto;html=1;exitX=0;exitY=0.5;exitDx=0;exitDy=0;" edge="1" parent="1" source="9" target="TtlJZ5i-rTw--ZZguqTJ-4">
          <mxGeometry relative="1" as="geometry" />
        </mxCell>
        <mxCell id="9" value="传感器驱动框架" style="shape=process;whiteSpace=wrap;html=1;backgroundOutline=1;" vertex="1" parent="1">
          <mxGeometry x="320" y="38" width="120" height="60" as="geometry" />
        </mxCell>
        <mxCell id="TtlJZ5i-rTw--ZZguqTJ-23" style="edgeStyle=orthogonalEdgeStyle;rounded=0;orthogonalLoop=1;jettySize=auto;html=1;exitX=0.5;exitY=1;exitDx=0;exitDy=0;" edge="1" parent="1" source="15" target="18">
          <mxGeometry relative="1" as="geometry" />
        </mxCell>
        <mxCell id="TtlJZ5i-rTw--ZZguqTJ-24" style="edgeStyle=orthogonalEdgeStyle;rounded=0;orthogonalLoop=1;jettySize=auto;html=1;exitX=0.5;exitY=1;exitDx=0;exitDy=0;entryX=0.5;entryY=0;entryDx=0;entryDy=0;" edge="1" parent="1" source="15" target="23">
          <mxGeometry relative="1" as="geometry" />
        </mxCell>
        <mxCell id="TtlJZ5i-rTw--ZZguqTJ-25" style="edgeStyle=orthogonalEdgeStyle;rounded=0;orthogonalLoop=1;jettySize=auto;html=1;exitX=0.5;exitY=1;exitDx=0;exitDy=0;entryX=0.5;entryY=0;entryDx=0;entryDy=0;" edge="1" parent="1" source="15" target="19">
          <mxGeometry relative="1" as="geometry" />
        </mxCell>
        <mxCell id="TtlJZ5i-rTw--ZZguqTJ-26" style="edgeStyle=orthogonalEdgeStyle;rounded=0;orthogonalLoop=1;jettySize=auto;html=1;exitX=0.5;exitY=1;exitDx=0;exitDy=0;" edge="1" parent="1" source="15" target="20">
          <mxGeometry relative="1" as="geometry" />
        </mxCell>
        <mxCell id="15" value="管理不同传感器" style="whiteSpace=wrap;html=1;" vertex="1" parent="1">
          <mxGeometry x="320" y="190" width="120" height="60" as="geometry" />
        </mxCell>
        <mxCell id="17" value="PT100 1" style="rounded=0;whiteSpace=wrap;html=1;" vertex="1" parent="1">
          <mxGeometry y="450" width="120" height="60" as="geometry" />
        </mxCell>
        <mxCell id="18" value="门磁" style="rounded=0;whiteSpace=wrap;html=1;" vertex="1" parent="1">
          <mxGeometry x="240" y="330" width="120" height="60" as="geometry" />
        </mxCell>
        <mxCell id="19" value="DS18B20" style="rounded=0;whiteSpace=wrap;html=1;" vertex="1" parent="1">
          <mxGeometry x="400" y="330" width="120" height="60" as="geometry" />
        </mxCell>
        <mxCell id="20" value="SHT4X" style="rounded=0;whiteSpace=wrap;html=1;" vertex="1" parent="1">
          <mxGeometry x="560" y="330" width="120" height="60" as="geometry" />
        </mxCell>
        <mxCell id="22" value="PT100 2" style="rounded=0;whiteSpace=wrap;html=1;" vertex="1" parent="1">
          <mxGeometry x="160" y="450" width="120" height="60" as="geometry" />
        </mxCell>
        <mxCell id="TtlJZ5i-rTw--ZZguqTJ-27" style="edgeStyle=orthogonalEdgeStyle;rounded=0;orthogonalLoop=1;jettySize=auto;html=1;exitX=0.5;exitY=1;exitDx=0;exitDy=0;entryX=0.5;entryY=0;entryDx=0;entryDy=0;" edge="1" parent="1" source="23" target="17">
          <mxGeometry relative="1" as="geometry" />
        </mxCell>
        <mxCell id="TtlJZ5i-rTw--ZZguqTJ-28" style="edgeStyle=orthogonalEdgeStyle;rounded=0;orthogonalLoop=1;jettySize=auto;html=1;exitX=0.5;exitY=1;exitDx=0;exitDy=0;" edge="1" parent="1" source="23" target="22">
          <mxGeometry relative="1" as="geometry" />
        </mxCell>
        <mxCell id="23" value="ADS1015模块" style="rounded=0;whiteSpace=wrap;html=1;" vertex="1" parent="1">
          <mxGeometry x="80" y="330" width="120" height="60" as="geometry" />
        </mxCell>
        <mxCell id="TtlJZ5i-rTw--ZZguqTJ-37" style="edgeStyle=orthogonalEdgeStyle;rounded=0;orthogonalLoop=1;jettySize=auto;html=1;exitX=0;exitY=0.5;exitDx=0;exitDy=0;" edge="1" parent="1" source="TtlJZ5i-rTw--ZZguqTJ-32" target="9">
          <mxGeometry relative="1" as="geometry" />
        </mxCell>
        <mxCell id="TtlJZ5i-rTw--ZZguqTJ-32" value="外部调用&lt;br&gt;传感器对象" style="shape=process;whiteSpace=wrap;html=1;backgroundOutline=1;" vertex="1" parent="1">
          <mxGeometry x="590" y="38" width="120" height="60" as="geometry" />
        </mxCell>
        <mxCell id="TtlJZ5i-rTw--ZZguqTJ-38" value="无需了解底层实现" style="text;html=1;align=center;verticalAlign=middle;resizable=0;points=[];autosize=1;strokeColor=none;fillColor=none;" vertex="1" parent="1">
          <mxGeometry x="460" y="38" width="120" height="30" as="geometry" />
        </mxCell>
        <mxCell id="TtlJZ5i-rTw--ZZguqTJ-39" value="具体结构" style="text;html=1;align=center;verticalAlign=middle;resizable=0;points=[];autosize=1;strokeColor=none;fillColor=none;" vertex="1" parent="1">
          <mxGeometry x="205" y="38" width="70" height="30" as="geometry" />
        </mxCell>
      </root>
    </mxGraphModel>
  </diagram>
</mxfile>
